<svg xmlns="http://www.w3.org/2000/svg" width="416.65000000000003" height="89.66960571330206"
  viewBox="0 0 370.18518518518516 79.66964981749972">
  <g transform="matrix(0.8852183818817139,0,0,0.8852183818817139,-11.853074764894538,-4.4260920317322325)"
    fill="#FF7844">
    <g xmlns="http://www.w3.org/2000/svg">
      <g>
        <path
          d="M74.961,5H25.039C18.615,5,13.39,10.225,13.39,16.648v74.884c0,2.464,2.809,4.353,5.177,2.768l23.05-15.405l22.793,15.231    c2.231,2.016,5.558,0.273,5.558-2.47V28.297h13.313c1.838,0,3.328-1.49,3.328-3.328v-8.32C86.61,10.225,81.384,5,74.961,5z     M63.313,16.648v68.738L43.467,72.124c-1.12-0.747-2.579-0.747-3.699,0L20.046,85.306V16.648c0-2.753,2.239-4.992,4.992-4.992    h39.399C63.718,13.17,63.313,14.863,63.313,16.648z M79.954,21.641h-9.985v-4.992c0-2.753,2.239-4.992,4.992-4.992    s4.993,2.239,4.993,4.992V21.641z">
        </path>
      </g>
    </g>
  </g>
  <g transform="matrix(2.161803960800171,0,0,2.161803960800171,80.67639294799699,13.190979792921219)" fill="#000000">
    <path
      d="M10.44 11.58 c1.18 0.82 1.96 2.22 1.96 3.82 c0 2.54 -2 4.6 -4.46 4.6 l-5.94 0 l0 -15 l5.94 0 c2.02 0 3.64 1.72 3.64 3.8 c0 1.08 -0.44 2.08 -1.14 2.78 z M4.22 6.84 l0 3.96 l3.72 0 l0.06 0 c0.76 -0.06 1.36 -0.96 1.36 -2 c0 -1.06 -0.64 -1.96 -1.42 -1.96 l-3.72 0 z M7.94 18.16 c1.24 0 2.24 -1.24 2.24 -2.76 c0 -1.48 -0.96 -2.7 -2.14 -2.76 l-0.1 0 l-3.72 0 l0 5.52 l3.72 0 z M19.94 11.64 c-1.7 0 -3.08 1.42 -3.08 3.44 c0 2 1.38 3.44 3.08 3.44 s3.08 -1.44 3.08 -3.44 c0 -2.02 -1.38 -3.44 -3.08 -3.44 z M19.94 9.94 c2.84 0 5.14 2.2 5.14 5.14 s-2.3 5.12 -5.14 5.12 s-5.14 -2.18 -5.14 -5.12 s2.3 -5.14 5.14 -5.14 z M32.019999999999996 11.64 c-1.7 0 -3.08 1.42 -3.08 3.44 c0 2 1.38 3.44 3.08 3.44 s3.08 -1.44 3.08 -3.44 c0 -2.02 -1.38 -3.44 -3.08 -3.44 z M32.019999999999996 9.94 c2.84 0 5.14 2.2 5.14 5.14 s-2.3 5.12 -5.14 5.12 s-5.14 -2.18 -5.14 -5.12 s2.3 -5.14 5.14 -5.14 z M46.459999999999994 20 l-3.74 -4.78 l-1.08 0.92 l0 3.86 l-2.08 0 l0 -15 l2.08 0 l0 8.58 l3.98 -3.46 l3.2 0 l-4.6 3.84 l4.9 6.04 l-2.66 0 z M59.39999999999999 14.3 l0 5.7 l-2.08 0 l0.02 -0.08 l0 -5.42 c0 -2 -0.52 -2.88 -2.22 -2.88 c-1.92 0 -2.6 1.34 -2.6 3.08 l0 5.3 l-2.06 0 l0 -9.88 l2.06 0 l0 1.6 c0.28 -0.88 1.42 -1.68 2.6 -1.76 c1.94 -0.14 3.32 0.5 3.94 2.1 c0.42 -1.36 1.76 -2.02 2.92 -2.1 c2.68 -0.2 4.28 1.1 4.28 4.34 l0 5.7 l-2.06 0 l0 -5.5 c0 -2 -0.52 -2.88 -2.22 -2.88 c-1.72 0 -2.44 1.08 -2.58 2.68 z M72.75999999999999 9.92 c2.84 0 3.98 1.72 3.98 3.18 l0 6.9 l-2.06 0 l0 -1.08 c-0.72 0.98 -2 1.26 -2.8 1.26 c-2.26 0 -3.74 -1.32 -3.74 -3.08 c0 -2.46 1.84 -3.34 3.74 -3.34 l2.8 0 l0 -0.66 c0 -0.62 -0.24 -1.48 -1.92 -1.48 c-0.94 0 -1.8 0.5 -2.36 1.28 l-1.42 -1.28 c0.94 -1.04 2.28 -1.7 3.78 -1.7 z M74.67999999999999 16.92 l0 -1.48 l-2.52 0 c-1.22 0 -2.08 0.62 -1.94 1.74 c0.12 0.94 0.88 1.32 1.94 1.32 c1.9 0 2.52 -0.9 2.52 -1.58 z M85.15999999999998 10.24 l-0.44 1.62 c-0.14 -0.08 -0.58 -0.22 -0.94 -0.22 c-1.7 0 -2.5 1.62 -2.5 3.62 l0 4.74 l-2.06 0 l0 -9.88 l2.06 0 l0 1.4 c0.24 -0.92 1.3 -1.58 2.48 -1.58 c0.54 0 1.12 0.14 1.4 0.3 z M93.45999999999998 20 l-3.74 -4.78 l-1.08 0.92 l0 3.86 l-2.08 0 l0 -15 l2.08 0 l0 8.58 l3.98 -3.46 l3.2 0 l-4.6 3.84 l4.9 6.04 l-2.66 0 z M106.99999999999997 5 l2.22 0 l0 15 l-2.22 0 l0 -6.58 l-7.06 0 l0 6.58 l-2.22 0 l0 -15 l2.22 0 l0 6.58 l7.06 0 l0 -6.58 z M112.07999999999998 15.82 l0 -5.7 l2.06 0 l0 5.5 c0 2 0.62 2.88 2.32 2.88 c1.92 0 2.7 -1.34 2.7 -3.08 l0 -5.3 l2.06 0 l0 9.88 l-2.06 0 l0 -1.6 c-0.28 0.88 -1.52 1.68 -2.7 1.76 c-2.68 0.2 -4.38 -1.1 -4.38 -4.34 z M128.98 9.94 c2.84 0 4.94 2.2 4.94 5.14 s-2.1 5.12 -4.94 5.12 c-0.96 0 -2.06 -0.36 -2.84 -0.94 l0 0.74 l-2.06 0 l0 -15 l2.06 0 l0 5.9 c0.66 -0.54 1.88 -0.96 2.84 -0.96 z M128.77999999999997 18.52 c1.7 0 3.08 -1.44 3.08 -3.44 c0 -2.02 -1.38 -3.44 -3.08 -3.44 c-1.12 0 -2.1 0.5 -2.64 1.56 c-0.28 0.56 -0.44 1.2 -0.44 1.88 s0.16 1.32 0.44 1.86 c0.54 1.06 1.52 1.58 2.64 1.58 z">
    </path>
  </g>
</svg>